<svg version="1.1" id="Layer_1" xmlns="http://www.w3.org/2000/svg" viewBox="0 0 697.7 409">
<style type="text/css">
  .st0 {
  fill-rule: evenodd;
  clip-rule: evenodd;
  fill: #95C11F;
  }

  .st1 {
  fill: #A2A9AD;
  }
</style>
<title>Asset 1</title>
<g id="Layer_2_1_">
<g id="Capa_1">
<path class="st0" d="M259.9,137.4c-8.6-1.6-17.2-0.4-25.7,1.5c-62,13.8-124,27.5-185.9,41.2c-10.2,2.3-20.4,4.2-29.7,9.5
			c-15.8,9.1-22.3,25.4-16.4,42.3c2.4,6.9,6.1,13.2,10.9,18.8c39.5,46.6,79,93.2,118.5,139.7c3.9,4.5,8.3,8.4,13.2,11.8
			c14,9.7,29.8,9,42.3-1.4c5.6-4.6,10-10.3,13-16.9c5.1-11.7,9.9-23.6,14.6-35.4c11-27.2,21.9-54.4,32.8-81.6l0,0
			c-6.6,2.5-12.4,4.4-17.3,5.8l-8.8,2.7l-5.4,9.5c-3.6,6.8-6.8,12.2-9.5,16.3c-2.9,4.3-6.1,8.4-9.5,12.2
			c-7.3,8.2-15.2,13.4-23.8,15.6c-2.9,0.7-5.9,1.1-8.8,1.4c-2.5-0.2-5-0.7-7.5-1.4c-7.8-2-14.8-6.4-20-12.6
			c-5.2-6.1-9.9-15.1-13.9-26.9c-1.8-6.3-3-8.6-3.4-6.8c-5,13.1-8.8,22.4-11.6,27.9c-2.7,5.5-5.4,9.3-8.2,11.6
			c-3.3,2.2-7.6,2.6-11.2,1c-3.8-1.6-6.5-4.6-7.8-9.2c-0.9-1.3-1.5-5.1-1.7-11.2s-0.3-13.1-0.3-21.1s0-15.8,0.3-23.8
			s2.8-46.7,3.3-52.1c0.9-7.7,1.9-12.8,3.1-15.3c1.1-2.5,3.5-3.8,7.1-3.8c5,0,8.2,1.9,9.5,5.8s-0.7,44.4-1.6,57.6
			c-0.9,14.5-1.3,22.5-1,24.1c0.3,1.6,1.7-1.5,4.4-9.2c5-14,9-23.2,11.9-27.5c2.9-4.3,6.7-6,11.2-5.1c5,1.4,8.1,6.6,9.5,15.6
			c2.3,19,5.1,33.1,8.5,42.2c3.4,9.1,8,15,13.9,17.7c3.2,1.8,7.1,2,10.5,0.7c3.4-1.3,7.6-4.5,12.6-9.5c4.7-4.8,8.8-10.2,12.2-16
			c3.6-6.1,4.8-9.4,3.4-9.8c-2.9-1.7-5.6-3.6-8.2-5.8c-3.6-3-6.1-5.6-7.5-7.8c-5.9-8.6-7.9-19.7-6.1-33.3s6.8-24.9,15-34
			c6.8-7.2,13.9-10.5,21.4-9.9s13,5.3,16.6,13.9c2.3,4.1,3.6,10.2,4.1,18.4c0.5,8-0.2,16-2,23.8c-0.4,3.2-0.9,5.9-1.4,8.2
			c-0.3,1.3-0.5,2.7-0.7,4.1c0,0.9,1.4,0.9,4.1,0c2.7-0.9,10-3.7,21.8-8.1c1-0.4,2.1-0.9,3.1-1.3l21.6-53.6
			c2.8-6.7,4.4-13.9,4.5-21.2C284.1,150.9,275.3,140.2,259.9,137.4" />

<path class="st0" d="M203.2,209.4c-3.5,5.8-6,12.3-7.1,19c-2.3,10.4-0.5,18.1,5.4,23.1c2.7,1.8,4.3,2.7,4.8,2.7
			c0.1-0.9,0.3-1.8,0.7-2.7c0.5-1.8,1-3.6,1.4-5.4c2.3-8.1,3.6-16.4,4.1-24.8c0.5-8.4-0.2-13.9-2-16.6
			C209,202.4,206.7,204,203.2,209.4" />

<path class="st1" d="M654.5,261.6c1.4,1,2.7,1.2,3.8,0.7c2.1-1.1,4-2.3,5.9-3.6c1.4-1,2.9-2.1,4.3-3.3c1.8-1.6,3.5-3.3,5.1-5.1
			c2-2.2,4.3-4.8,7-7.7s6-6.9,9.9-11.8c1.3-2,2.9-3.8,4.6-5.5c0.9-0.7,1.5-0.6,1.9,0.4c0.7,2,1,4.9,0.8,8.8c-0.2,4-1,8-2.4,11.8
			c-1,3-2.3,5.8-4,8.4c-2.1,3.3-4.3,6.5-6.7,9.6c-2.5,3.2-5.1,6.1-7.6,8.8c-2.1,2.3-4.4,4.4-7,6.2c-8.2,5.4-15.8,6.1-22.5,2.2
			c-6.8-3.9-11.8-12.3-15-25l-2.1-8.1l-3.8,8.8c-9.7,24-20,40.2-31.1,48.5c-2.2,1.6-4.6,2.9-7.2,3.7c-2.4,0.5-4.8,0.8-7.3,0.7
			c-1.8,0.5-3.8,0.6-5.6,0.4c-1.4-0.1-2.8-0.5-4-1.1c-6.1-2.4-11.2-7.5-15.3-15.1s-7.1-17-8.9-28.3c-0.8-4.2-1.4-8.5-1.6-12.9
			c-0.4-5.1-0.6-10.3-0.8-15.4s-0.2-10,0-14.7c0.1-3.3,0.3-6.7,0.8-9.9c1.1-8.3,4.5-11.2,10.2-8.8c2.1,1,3.6,3.2,4.3,6.6
			s1.1,10.3,1.1,20.6c0,13.7,0.7,24.5,2.1,32.3c1.4,7.8,3.8,14.2,7,19.1c6.4,9.3,14.4,8.4,23.9-2.9s18.3-30.2,26.6-56.6
			c3.2-11.3,5.5-18.2,6.7-20.9c0.9-2.3,2.5-4.2,4.6-5.5c1.6-1,3.6-1.1,5.4-0.4c1.8,0.8,3.4,2.2,4.3,4c0.6,2.3,0.9,4.6,1.1,7
			c0.3,3.7,0.7,8.2,1.1,13.6c0.7,12.7,2,22.2,3.8,28.3C649.3,255.6,651.6,259.6,654.5,261.6" />

<path class="st1" d="M429.3,304.6c14-88.4,54.2-130.6,58.8-135.1c1.6-1.4,3.2-2.7,4.9-3.9l1.6-1.1l0.1,1.9
			c0.8,9.4-1.9,29.1-3.7,42.1c-3.5,25.5-6.7,49.5-2.1,64.3l0.5,1.3c6.5,13.5,15.7,16.6,22.2,16.8h0.6c20.3,0,38.2-27.1,47.1-43.2
			c2.5-4.6,0.8-10.3-3.7-12.8c-1.4-0.8-3-1.2-4.5-1.2c-3.5,0-6.6,1.9-8.3,4.9c-13.5,24.5-25.6,33.4-30.5,33.4
			c-2.2,0-4.2-2.9-5.4-5.3c-3.1-11.4,0.2-35.8,2.9-55.5c4.7-34.7,7.8-57.6-5.8-64.9c-2.2-1.2-4.6-1.8-7.1-1.8
			c-9,0-17.7,7.6-21.4,10.9l-0.4,0.4c-7.9,7.8-48.5,51.5-63.7,142l-1.2,7.4l-1-7.4c-2.6-20.4-8.6-73.9-7.8-130.2
			c1-65.4,11.1-112.7,29.4-136.5c3.2-3.6,6.7-6.8,10.4-9.8l1.7-1.2l0.1,2.1c0.3,5.1-0.2,20.6-9.6,54.2
			c-8.8,31.2-14.1,44.3-18.6,53.9c-2.3,5-1.3,15.4,1.2,19.1c1.7,2.4,3.9,4,6,4c1.7-0.1,3.1-1.1,3.9-2.6c7.4-12.4,19.3-45,27.1-74.2
			C461,45.9,467.6,13.1,454,3c-2.5-1.9-5.6-3-8.8-3c-11.6,0-23.6,13-28.7,18.6l-0.5,0.7c-51.4,66.4-30,248.8-25.2,284.7
			c3.7,27.5,7.7,41.5,19.3,41.5l0.1,1.1v-1.1C421.9,345.3,426.1,330.4,429.3,304.6z" />

<path class="st1" d="M352.8,198c-8,0.4-8.7,5.5-9.1,8.6c-0.1,0.6-0.2,1.2-0.3,1.7c-0.3,0.7-1,1.6-2.9,1.6
			c-1.5-0.1-2.9-0.4-4.3-0.9c-3.9-1.3-8.1-1.9-12.2-1.9c-13.4,0-37.3,7-47,53.7c-6.6,31.4-0.7,48.8,17.9,53.2
			c1.4,0.3,2.9,0.4,4.4,0.5c15.7,0,32.6-25,39-39.3c1-2.2,1.6-4.9,2.6-4.5c0.7,0.3,0.5,2.2,1,6.6c0.3,2.9,0.6,9.8,0.9,17
			c0.3,8.6,1.4,18.5,1.9,20.9c1.2,6.9,7.5,7.7,12.2,8h0.4c3.3,0,4.3-2.5,4.9-6.9c0.5-3.5,1.4-36.5,1.4-51.7
			c0-12.4,0.5-43.1,0.7-54.7c0-2.7,0.1-4.3,0.1-4.4C364.2,204.6,363.9,197.5,352.8,198z M332.5,236.8c-1.5,4-3.2,8-5.2,11.8
			l-1.3,2.8c-22.9,47.1-26.2,47.4-27.6,47.4l0,0c-1.2-0.1-2.2-0.8-2.8-1.8c-2.8-4.1-3.8-16.7,0.9-34.6c8.6-32.7,22.6-40,26.9-40
			c0.9-0.1,1.8-0.2,2.7-0.2c3.3,0,5.8,1.1,7.1,3.1C334.9,227.8,334.6,231.7,332.5,236.8L332.5,236.8z" />

	</g>
</g>
</svg>
